<svg width="594.608" height="412.383" viewBox="0 0 445.956 309.288" version="1.1" id="prefix__svg2" xmlns:xlink="http://www.w3.org/1999/xlink" xmlns="http://www.w3.org/2000/svg"><defs id="prefix__defs1"><linearGradient id="prefix__I" x1="16513.004" x2="16513.004" y1="55159.738" y2="22516.59" xlink:href="#prefix__C" gradientTransform="matrix(2.3626 0 0 3.401 -508.701 333.42)" gradientUnits="userSpaceOnUse"/><linearGradient id="prefix__C" x1="0" y1="0" x2="576" y2="0" gradientUnits="userSpaceOnUse" spreadMethod="pad"><stop stop-color="#ffb346" offset="0" id="prefix__stop1"/><stop stop-color="#ffe281" offset="1" id="prefix__stop2"/></linearGradient><linearGradient id="prefix__P" gradientUnits="userSpaceOnUse"/><linearGradient xlink:href="#prefix__C" id="prefix__linearGradient11" x1="-442.32" y1="307.46" x2="385.372" y2="307.46" gradientUnits="userSpaceOnUse" gradientTransform="translate(443.707 1.827)"/><linearGradient id="prefix__F" x1="57925.836" x2="57925.836" y1="55154.727" y2="12105.43" xlink:href="#prefix__D" gradientTransform="matrix(2.35556 0 0 3.41117 -156.261 264.752)" gradientUnits="userSpaceOnUse"/><linearGradient id="prefix__D" xlink:href="#prefix__P"><stop stop-color="#ff5b13" offset="0" id="prefix__stop3"/><stop stop-color="#f7c133" offset=".669" id="prefix__stop4"/></linearGradient><linearGradient xlink:href="#prefix__D" id="prefix__linearGradient158" x1="-2027.52" y1="725.76" x2="1624.32" y2="195.84" gradientUnits="userSpaceOnUse"/><linearGradient xlink:href="#prefix__D" id="prefix__linearGradient159" x1="-2027.52" y1="725.76" x2="1624.32" y2="195.84" gradientUnits="userSpaceOnUse"/><linearGradient xlink:href="#prefix__D" id="prefix__linearGradient160" x1="-2027.52" y1="725.76" x2="1624.32" y2="195.84" gradientUnits="userSpaceOnUse"/><linearGradient xlink:href="#prefix__D" id="prefix__linearGradient161" x1="-2027.52" y1="725.76" x2="1624.32" y2="195.84" gradientUnits="userSpaceOnUse"/><linearGradient xlink:href="#prefix__D" id="prefix__linearGradient162" x1="-2027.52" y1="725.76" x2="1624.32" y2="195.84" gradientUnits="userSpaceOnUse"/><linearGradient xlink:href="#prefix__D" id="prefix__linearGradient163" x1="-2027.52" y1="725.76" x2="1624.32" y2="195.84" gradientUnits="userSpaceOnUse"/><linearGradient xlink:href="#prefix__D" id="prefix__linearGradient164" x1="-2027.52" y1="725.76" x2="1624.32" y2="195.84" gradientUnits="userSpaceOnUse"/><linearGradient xlink:href="#prefix__D" id="prefix__linearGradient165" x1="-2027.52" y1="725.76" x2="1624.32" y2="195.84" gradientUnits="userSpaceOnUse"/><linearGradient xlink:href="#prefix__D" id="prefix__linearGradient166" x1="-2027.52" y1="725.76" x2="1624.32" y2="195.84" gradientUnits="userSpaceOnUse"/><linearGradient xlink:href="#prefix__D" id="prefix__linearGradient167" x1="-2027.52" y1="725.76" x2="1624.32" y2="195.84" gradientUnits="userSpaceOnUse"/><linearGradient xlink:href="#prefix__D" id="prefix__linearGradient168" x1="-2027.52" y1="725.76" x2="1624.32" y2="195.84" gradientUnits="userSpaceOnUse"/><linearGradient xlink:href="#prefix__D" id="prefix__linearGradient169" x1="-2027.52" y1="725.76" x2="1624.32" y2="195.84" gradientUnits="userSpaceOnUse"/><linearGradient xlink:href="#prefix__D" id="prefix__linearGradient170" x1="-2027.52" y1="725.76" x2="1624.32" y2="195.84" gradientUnits="userSpaceOnUse"/><linearGradient xlink:href="#prefix__D" id="prefix__linearGradient171" x1="-2027.52" y1="725.76" x2="1624.32" y2="195.84" gradientUnits="userSpaceOnUse"/><linearGradient xlink:href="#prefix__D" id="prefix__linearGradient172" x1="-2027.52" y1="725.76" x2="1624.32" y2="195.84" gradientUnits="userSpaceOnUse"/><linearGradient xlink:href="#prefix__D" id="prefix__linearGradient173" x1="-2027.52" y1="725.76" x2="1624.32" y2="195.84" gradientUnits="userSpaceOnUse"/><linearGradient xlink:href="#prefix__D" id="prefix__linearGradient174" x1="-2027.52" y1="725.76" x2="1624.32" y2="195.84" gradientUnits="userSpaceOnUse"/><linearGradient xlink:href="#prefix__D" id="prefix__linearGradient175" x1="-2027.52" y1="725.76" x2="1624.32" y2="195.84" gradientUnits="userSpaceOnUse"/><linearGradient xlink:href="#prefix__D" id="prefix__linearGradient176" x1="-2027.52" y1="725.76" x2="1624.32" y2="195.84" gradientUnits="userSpaceOnUse"/><linearGradient xlink:href="#prefix__D" id="prefix__linearGradient177" x1="-2027.52" y1="725.76" x2="1624.32" y2="195.84" gradientUnits="userSpaceOnUse"/><linearGradient xlink:href="#prefix__D" id="prefix__linearGradient178" x1="-2027.52" y1="725.76" x2="1624.32" y2="195.84" gradientUnits="userSpaceOnUse"/><linearGradient xlink:href="#prefix__D" id="prefix__linearGradient179" x1="-2027.52" y1="725.76" x2="1624.32" y2="195.84" gradientUnits="userSpaceOnUse"/><linearGradient xlink:href="#prefix__D" id="prefix__linearGradient180" x1="-2027.52" y1="725.76" x2="1624.32" y2="195.84" gradientUnits="userSpaceOnUse"/><linearGradient xlink:href="#prefix__D" id="prefix__linearGradient181" x1="-2027.52" y1="725.76" x2="1624.32" y2="195.84" gradientUnits="userSpaceOnUse"/><linearGradient xlink:href="#prefix__C" id="prefix__linearGradient182" gradientUnits="userSpaceOnUse" x1="-442.32" y1="307.46" x2="385.372" y2="307.46" gradientTransform="translate(443.707 1.827)"/><linearGradient xlink:href="#prefix__C" id="prefix__linearGradient183" gradientUnits="userSpaceOnUse" x1="-442.32" y1="307.46" x2="385.372" y2="307.46" gradientTransform="translate(443.707 1.827)"/><linearGradient xlink:href="#prefix__C" id="prefix__linearGradient184" gradientUnits="userSpaceOnUse" x1="-442.32" y1="307.46" x2="385.372" y2="307.46" gradientTransform="translate(443.707 1.827)"/><linearGradient xlink:href="#prefix__C" id="prefix__linearGradient185" gradientUnits="userSpaceOnUse" x1="-442.32" y1="307.46" x2="385.372" y2="307.46" gradientTransform="translate(443.707 1.827)"/><linearGradient xlink:href="#prefix__C" id="prefix__linearGradient186" gradientUnits="userSpaceOnUse" x1="-442.32" y1="307.46" x2="385.372" y2="307.46" gradientTransform="translate(443.707 1.827)"/><linearGradient xlink:href="#prefix__C" id="prefix__linearGradient187" gradientUnits="userSpaceOnUse" x1="-442.32" y1="307.46" x2="385.372" y2="307.46" gradientTransform="translate(443.707 1.827)"/><linearGradient xlink:href="#prefix__C" id="prefix__linearGradient188" gradientUnits="userSpaceOnUse" x1="-442.32" y1="307.46" x2="385.372" y2="307.46" gradientTransform="translate(443.707 1.827)"/><linearGradient xlink:href="#prefix__C" id="prefix__linearGradient189" gradientUnits="userSpaceOnUse" x1="-442.32" y1="307.46" x2="385.372" y2="307.46" gradientTransform="translate(443.707 1.827)"/><linearGradient xlink:href="#prefix__C" id="prefix__linearGradient190" gradientUnits="userSpaceOnUse" x1="-442.32" y1="307.46" x2="385.372" y2="307.46" gradientTransform="translate(443.707 1.827)"/><linearGradient xlink:href="#prefix__C" id="prefix__linearGradient191" gradientUnits="userSpaceOnUse" x1="-442.32" y1="307.46" x2="385.372" y2="307.46" gradientTransform="translate(443.707 1.827)"/><linearGradient xlink:href="#prefix__C" id="prefix__linearGradient192" gradientUnits="userSpaceOnUse" x1="-442.32" y1="307.46" x2="385.372" y2="307.46" gradientTransform="translate(443.707 1.827)"/><linearGradient xlink:href="#prefix__C" id="prefix__linearGradient193" gradientUnits="userSpaceOnUse" x1="-442.32" y1="307.46" x2="385.372" y2="307.46" gradientTransform="translate(443.707 1.827)"/><linearGradient xlink:href="#prefix__C" id="prefix__linearGradient194" gradientUnits="userSpaceOnUse" x1="-442.32" y1="307.46" x2="385.372" y2="307.46" gradientTransform="translate(443.707 1.827)"/><linearGradient xlink:href="#prefix__C" id="prefix__linearGradient195" gradientUnits="userSpaceOnUse" x1="-442.32" y1="307.46" x2="385.372" y2="307.46" gradientTransform="translate(443.707 1.827)"/><linearGradient xlink:href="#prefix__C" id="prefix__linearGradient196" gradientUnits="userSpaceOnUse" x1="-442.32" y1="307.46" x2="385.372" y2="307.46" gradientTransform="translate(443.707 1.827)"/><linearGradient xlink:href="#prefix__C" id="prefix__linearGradient197" gradientUnits="userSpaceOnUse" x1="-442.32" y1="307.46" x2="385.372" y2="307.46" gradientTransform="translate(443.707 1.827)"/><linearGradient xlink:href="#prefix__C" id="prefix__linearGradient198" gradientUnits="userSpaceOnUse" x1="-442.32" y1="307.46" x2="385.372" y2="307.46" gradientTransform="translate(443.707 1.827)"/><linearGradient xlink:href="#prefix__C" id="prefix__linearGradient199" gradientUnits="userSpaceOnUse" x1="-442.32" y1="307.46" x2="385.372" y2="307.46" gradientTransform="translate(443.707 1.827)"/><linearGradient xlink:href="#prefix__C" id="prefix__linearGradient200" gradientUnits="userSpaceOnUse" x1="-442.32" y1="307.46" x2="385.372" y2="307.46" gradientTransform="translate(443.707 1.827)"/><linearGradient xlink:href="#prefix__C" id="prefix__linearGradient201" gradientUnits="userSpaceOnUse" x1="-442.32" y1="307.46" x2="385.372" y2="307.46" gradientTransform="translate(443.707 1.827)"/><linearGradient xlink:href="#prefix__C" id="prefix__linearGradient202" gradientUnits="userSpaceOnUse" x1="-442.32" y1="307.46" x2="385.372" y2="307.46" gradientTransform="translate(443.707 1.827)"/><linearGradient xlink:href="#prefix__C" id="prefix__linearGradient203" gradientUnits="userSpaceOnUse" x1="-442.32" y1="307.46" x2="385.372" y2="307.46" gradientTransform="translate(443.707 1.827)"/><linearGradient xlink:href="#prefix__C" id="prefix__linearGradient204" gradientUnits="userSpaceOnUse" x1="-442.32" y1="307.46" x2="385.372" y2="307.46" gradientTransform="translate(443.707 1.827)"/><pattern xlink:href="#prefix__pattern10" preserveAspectRatio="xMidYMid" id="prefix__pattern227" patternTransform="rotate(45 219.648 536.516) scale(2)"/><pattern xlink:href="#prefix__pattern10" preserveAspectRatio="xMidYMid" id="prefix__pattern226" patternTransform="rotate(45 219.648 536.516) scale(2)"/><pattern xlink:href="#prefix__pattern10" preserveAspectRatio="xMidYMid" id="prefix__pattern225" patternTransform="rotate(45 219.648 536.516) scale(2)"/><pattern xlink:href="#prefix__pattern10" preserveAspectRatio="xMidYMid" id="prefix__pattern224" patternTransform="rotate(45 219.648 536.516) scale(2)"/><pattern xlink:href="#prefix__pattern10" preserveAspectRatio="xMidYMid" id="prefix__pattern223" patternTransform="rotate(45 219.648 536.516) scale(2)"/><pattern xlink:href="#prefix__pattern10" preserveAspectRatio="xMidYMid" id="prefix__pattern222" patternTransform="rotate(45 219.648 536.516) scale(2)"/><pattern xlink:href="#prefix__pattern10" preserveAspectRatio="xMidYMid" id="prefix__pattern221" patternTransform="rotate(45 219.648 536.516) scale(2)"/><pattern xlink:href="#prefix__pattern10" preserveAspectRatio="xMidYMid" id="prefix__pattern220" patternTransform="rotate(45 219.648 536.516) scale(2)"/><pattern xlink:href="#prefix__pattern10" preserveAspectRatio="xMidYMid" id="prefix__pattern219" patternTransform="rotate(45 219.648 536.516) scale(2)"/><pattern xlink:href="#prefix__pattern10" preserveAspectRatio="xMidYMid" id="prefix__pattern218" patternTransform="rotate(45 219.648 536.516) scale(2)"/><pattern xlink:href="#prefix__pattern10" preserveAspectRatio="xMidYMid" id="prefix__pattern217" patternTransform="rotate(45 219.648 536.516) scale(2)"/><pattern xlink:href="#prefix__pattern10" preserveAspectRatio="xMidYMid" id="prefix__pattern216" patternTransform="rotate(45 219.648 536.516) scale(2)"/><pattern xlink:href="#prefix__pattern10" preserveAspectRatio="xMidYMid" id="prefix__pattern215" patternTransform="rotate(45 219.648 536.516) scale(2)"/><pattern xlink:href="#prefix__pattern10" preserveAspectRatio="xMidYMid" id="prefix__pattern214" patternTransform="rotate(45 219.648 536.516) scale(2)"/><pattern xlink:href="#prefix__pattern10" preserveAspectRatio="xMidYMid" id="prefix__pattern213" patternTransform="rotate(45 219.648 536.516) scale(2)"/><pattern xlink:href="#prefix__pattern10" preserveAspectRatio="xMidYMid" id="prefix__pattern212" patternTransform="rotate(45 219.648 536.516) scale(2)"/><pattern xlink:href="#prefix__pattern10" preserveAspectRatio="xMidYMid" id="prefix__pattern211" patternTransform="rotate(45 219.648 536.516) scale(2)"/><pattern xlink:href="#prefix__pattern10" preserveAspectRatio="xMidYMid" id="prefix__pattern210" patternTransform="rotate(45 219.648 536.516) scale(2)"/><pattern xlink:href="#prefix__pattern10" preserveAspectRatio="xMidYMid" id="prefix__pattern209" patternTransform="rotate(45 219.648 536.516) scale(2)"/><pattern xlink:href="#prefix__pattern10" preserveAspectRatio="xMidYMid" id="prefix__pattern208" patternTransform="rotate(45 219.648 536.516) scale(2)"/><pattern xlink:href="#prefix__pattern10" preserveAspectRatio="xMidYMid" id="prefix__pattern207" patternTransform="rotate(45 219.648 536.516) scale(2)"/><pattern xlink:href="#prefix__pattern10" preserveAspectRatio="xMidYMid" id="prefix__pattern206" patternTransform="rotate(45 219.648 536.516) scale(2)"/><pattern xlink:href="#prefix__pattern10" preserveAspectRatio="xMidYMid" id="prefix__pattern205" patternTransform="rotate(45 219.648 536.516) scale(2)"/><pattern xlink:href="#prefix__pattern10" preserveAspectRatio="xMidYMid" id="prefix__pattern204" patternTransform="rotate(45 219.648 536.516) scale(2)"/><pattern xlink:href="#prefix__E" preserveAspectRatio="xMidYMid" id="prefix__pattern10" patternTransform="rotate(45) scale(2)" x="0" y="0"/><pattern id="prefix__B" xlink:href="#prefix__E" patternTransform="scale(5.66924) rotate(45)" preserveAspectRatio="xMidYMid" x="0" y="0"/><pattern id="prefix__E" width="2" height="10" fill="#ed8722" patternTransform="scale(2)" patternUnits="userSpaceOnUse" preserveAspectRatio="xMidYMid"><path d="M0-.5h1v11H0z" id="prefix__path4"/></pattern><style id="style1">*{stroke-linejoin:round;stroke-linecap:butt}</style><path id="prefix__rect9" d="M151.68 151.68h468.48v336H151.68z"/></defs><defs id="prefix__defs2"><clipPath id="prefix__prefix__pb6df248465"><path d="M72 69.12h446.4v443.52H72z" id="prefix__path1"/></clipPath></defs><g id="prefix__g227" transform="scale(.5)"><g id="prefix__g135" transform="translate(443.707 1.827)" font-size="200" font-family="Carda" stroke-width=".75"><path d="M-439.32 73.16v62.2h31.4v-88.6s-31.4.8-31.4 26.4zm15.4-38.2c9.6 0 17.4-7.8 17.4-17.4 0-9.8-7.8-17.6-17.4-17.6-9.6 0-17.4 7.8-17.4 17.6 0 9.6 7.8 17.4 17.4 17.4z" id="prefix__text63" style="line-height:.8;-inkscape-font-specification:Carda" aria-label="i" fill="url(#prefix__linearGradient158)"/><path d="M-328.72 95.56c-1.8 6.4-7.8 11.2-14.8 11.2-8.4 0-15.2-7-15.2-15.4s6.8-15.4 15.2-15.4c7.2 0 13.2 5 14.8 11.6h29c-2-22.6-20.8-40.2-43.8-40.2-24.2 0-44 19.8-44 44 0 24.4 19.8 44 44 44 23 0 41.8-17.4 43.8-39.8z" id="prefix__text62" style="line-height:.8;-inkscape-font-specification:Carda" aria-label="C" fill="url(#prefix__linearGradient159)"/><path d="M-251.12 135.36V25.96c0-25.6-31.4-26.4-31.4-26.4v135.8z" id="prefix__text61" style="line-height:.8;-inkscape-font-specification:Carda" aria-label="L" fill="url(#prefix__linearGradient160)"/><path d="M-188.92 47.36c-24.4 0-44 19.8-44 44 0 24.4 19.6 44 44 44 24.2 0 44-19.6 44-44 0-24.2-19.8-44-44-44zm0 59.4c-8.6 0-15.4-7-15.4-15.4s6.8-15.4 15.4-15.4c8.4 0 15.2 7 15.2 15.4s-6.8 15.4-15.2 15.4z" id="prefix__text60" style="line-height:.8;-inkscape-font-specification:Carda" aria-label="O" fill="url(#prefix__linearGradient161)"/><path d="M-39.92 47.56h-28.6v43.8c0 8.6-7 15.4-15.4 15.4s-15.4-6.8-15.4-15.4v-43.8h-28.6v43.8c0 24.4 19.8 44 44 44s44-19.6 44-44z" id="prefix__text59" style="line-height:.8;-inkscape-font-specification:Carda" aria-label="U" fill="url(#prefix__linearGradient162)"/><path d="M63.88 91.36c0-24.2-19.8-44-44-44-24.4 0-44 19.8-44 44 0 24.4 19.6 44 44 44 24.2 0 44-19.6 44-44zm0-91.8s-31.4.8-31.4 26.4v16.6c15.4 4.2 27.6 15.2 31.4 26zm-28.8 91.8c0 8.4-6.8 15.4-15.2 15.4-8.4 0-15.4-7-15.4-15.4s7-15.4 15.4-15.4 15.2 7 15.2 15.4z" id="prefix__text58" style="line-height:.8;-inkscape-font-specification:Carda" aria-label="D" fill="url(#prefix__linearGradient163)"/><path d="M-441.92 234.76c-1.4 15.6 8.4 23.8 22.2 23.8h8v-5.8c.2-4 .8-6.8 1.4-8.6.6-1.4 1.2-2.2 2-3l1.6-1.4c1-.6 2.4-1.2 4-1.6 1.8-.4 3.8-.6 5.8-.6h18.8c22.6 0 22.2-31 22.2-31h-54.6c-20.8 0-30.2 15.4-31.4 28.2zm85.8 32.6c1.4-15.6-8.4-24-22.2-24h-8v5.8c0 4.2-.6 6.8-1.4 8.6-.6 1.4-1.2 2.2-1.8 3-.6.4-1 1-1.8 1.4-1 .6-2.4 1.2-4 1.6-1.6.4-3.6.6-5.6.6h-19c-22.4 0-22.2 31-22.2 31h54.6c20.8 0 30.4-15.4 31.4-28z" id="prefix__text57" style="line-height:.8;-inkscape-font-specification:Carda" aria-label="S" fill="url(#prefix__linearGradient164)"/><path d="M-251.12 207.56h-28.6v43.8c0 8.6-7 15.4-15.4 15.4s-15.4-6.8-15.4-15.4v-43.8h-28.6v43.8c0 24.4 19.8 44 44 44s44-19.6 44-44zm-57.8 139.2h8.2c6-.2 11.8-1 17.2-3 4.2-1.6 8.4-3.6 12-6.4 5.6-4 10.2-9.4 13.4-16 3-6.2 4.6-13.4 4.8-21v-21.2s-8.2 16.4-31.8 22c0 4.2-1.6 11.4-8 13-11.2 2.2-17.4 12.4-15.8 32.6z" id="prefix__text56" style="line-height:.8;-inkscape-font-specification:Carda" aria-label="y" fill="url(#prefix__linearGradient165)"/><path d="M-149.32 251.56c0-24.4-19.8-44-44-44s-44 19.6-44 44v43.8h28.6v-43.8c0-8.6 7-15.4 15.4-15.4s15.4 6.8 15.4 15.4v43.8h28.6z" id="prefix__text55" style="line-height:.8;-inkscape-font-specification:Carda" aria-label="n" fill="url(#prefix__linearGradient166)"/><path d="M-74.72 255.56c-1.8 6.4-7.8 11.2-14.8 11.2-8.4 0-15.2-7-15.2-15.4s6.8-15.4 15.2-15.4c7.2 0 13.2 5 14.8 11.6h29c-2-22.6-20.8-40.2-43.8-40.2-24.2 0-44 19.8-44 44 0 24.4 19.8 44 44 44 23 0 41.8-17.4 43.8-39.8z" id="prefix__text54" style="line-height:.8;-inkscape-font-specification:Carda" aria-label="c" fill="url(#prefix__linearGradient167)"/><path d="M-439.32 393.16v62.2h31.4v-88.6s-31.4.8-31.4 26.4zm15.4-38.2c9.6 0 17.4-7.8 17.4-17.4 0-9.8-7.8-17.6-17.4-17.6-9.6 0-17.4 7.8-17.4 17.6 0 9.6 7.8 17.4 17.4 17.4z" id="prefix__text53" style="line-height:.8;-inkscape-font-specification:Carda" aria-label="I" fill="url(#prefix__linearGradient168)"/><path d="M-240.32 411.56c0-24.4-19.8-44-44-44-11.4 0-21.8 4.4-29.6 11.4-7.8-7-18.4-11.4-29.6-11.4-24.2 0-44 19.6-44 44v43.8h28.6v-43.8c0-8.6 7-15.4 15.4-15.4 7.6 0 14 5.6 15.2 13.2v46h28.8v-46c1-7.6 7.6-13.2 15.2-13.2 8.4 0 15.4 6.8 15.4 15.4v43.8h28.6z" id="prefix__text52" style="line-height:.8;-inkscape-font-specification:Carda" aria-label="m" fill="url(#prefix__linearGradient169)"/><path d="M-181.32 367.36c-24.4 0-44 19.8-44 44 0 24.4 19.6 44 44 44 24.2 0 44-19.6 44-44 0-24.2-19.8-44-44-44zm0 59.4c-8.6 0-15.4-7-15.4-15.4s6.8-15.4 15.4-15.4c8.4 0 15.2 7 15.2 15.4s-6.8 15.4-15.2 15.4zm44 5.8c-5 11.4-12.8 18.6-22.6 22.8h22.6z" id="prefix__text51" style="line-height:.8;-inkscape-font-specification:Carda" aria-label="a" fill="url(#prefix__linearGradient170)"/><path d="M-77.12 367.36c-24.4 0-44 19.8-44 44 0 24.4 19.6 44 44 44 24.2 0 44-19.6 44-44 0-24.2-19.8-44-44-44zm-13 139.4h8.2c6-.2 11.8-1 17.2-3 4.2-1.6 8.4-3.6 12-6.4 5.6-4 10.2-9.4 13.4-16 3-6.2 4.6-13.4 4.8-21v-23.2s-8.2 18.4-31.8 24c0 4.2-1.6 11.4-8 13-11.2 2.2-17.4 12.4-15.8 32.6zm13-80c-8.6 0-15.4-7-15.4-15.4s6.8-15.4 15.4-15.4c8.4 0 15.2 7 15.2 15.4s-6.8 15.4-15.2 15.4z" id="prefix__text50" style="line-height:.8;-inkscape-font-specification:Carda" aria-label="g" fill="url(#prefix__linearGradient171)"/><path d="M24.88 426.76c-8.4 0-15.4-7-15.4-15.4 0-1.4.8-2.8 1.8-3.8h57.4c-2-22.6-20.8-40.2-43.8-40.2-24.2 0-44 19.8-44 44 0 24.4 19.8 44 44 44 23 0 41.8-17.4 43.8-39.8h-29c-1.8 6.4-7.8 11.2-14.8 11.2z" id="prefix__text49" style="line-height:.8;-inkscape-font-specification:Carda" aria-label="e" fill="url(#prefix__linearGradient172)"/><path d="M-383.52 575.56c-1.8 6.4-7.8 11.2-14.8 11.2-8.4 0-15.2-7-15.2-15.4s6.8-15.4 15.2-15.4c7.2 0 13.2 5 14.8 11.6h29c-2-22.6-20.8-40.2-43.8-40.2-24.2 0-44 19.8-44 44 0 24.4 19.8 44 44 44 23 0 41.8-17.4 43.8-39.8z" id="prefix__text48" style="line-height:.8;-inkscape-font-specification:Carda" aria-label="C" fill="url(#prefix__linearGradient173)"/><path d="M-294.52 527.36c-24.4 0-44 19.8-44 44 0 24.4 19.6 44 44 44 24.2 0 44-19.6 44-44 0-24.2-19.8-44-44-44zm0 59.4c-8.6 0-15.4-7-15.4-15.4s6.8-15.4 15.4-15.4c8.4 0 15.2 7 15.2 15.4s-6.8 15.4-15.2 15.4z" id="prefix__text47" style="line-height:.8;-inkscape-font-specification:Carda" aria-label="o" fill="url(#prefix__linearGradient174)"/><path d="M-146.52 571.56c0-24.4-19.8-44-44-44s-44 19.6-44 44v43.8h28.6v-43.8c0-8.6 7-15.4 15.4-15.4s15.4 6.8 15.4 15.4v43.8h28.6z" id="prefix__text46" style="line-height:.8;-inkscape-font-specification:Carda" aria-label="n" fill="url(#prefix__linearGradient175)"/><path d="M-99.52 526.56h-33.4l40.4 88.6h21.2l6.6-14.6zm39.6 63.4l28.8-63.4h-33.2l-12.2 27.2z" id="prefix__text45" style="line-height:.8;-inkscape-font-specification:Carda" aria-label="v" fill="url(#prefix__linearGradient176)"/><path d="M25.08 586.76c-8.4 0-15.4-7-15.4-15.4 0-1.4.8-2.8 1.8-3.8h57.4c-2-22.6-20.8-40.2-43.8-40.2-24.2 0-44 19.8-44 44 0 24.4 19.8 44 44 44 23 0 41.8-17.4 43.8-39.8h-29c-1.8 6.4-7.8 11.2-14.8 11.2z" id="prefix__text44" style="line-height:.8;-inkscape-font-specification:Carda" aria-label="e" fill="url(#prefix__linearGradient177)"/><path d="M118.48 615.36v-30.8c0-4 .4-8 1.2-11.2.8-2.6 1.6-4.8 2.8-6.6.8-1.4 1.6-2.4 2.6-3.6 1.6-1.4 3.4-2.6 6.2-3.6 14.8-3.6 11.6-32.8 11.6-32.8-9.6 0-18.2 1.6-25.8 5-5.8 2.6-10.6 6.2-14.6 10.4-3 3-5.4 6.4-7.4 10-3 5.2-4.8 10.8-6 16.2-1.2 5.6-1.6 11-1.6 16.2v30.8z" id="prefix__text43" style="line-height:.8;-inkscape-font-specification:Carda" aria-label="r" fill="url(#prefix__linearGradient178)"/><path d="M205.28 615.36v-41.6c0-6.2-.6-12.4-2.6-18.2-1.4-4.4-3.4-8.6-6.2-12.4-2.2-2.8-4.8-5.4-7.6-7.6-4.4-3.2-9.4-5.4-14.6-6.8-5.2-1.4-10.8-2-20.8-2v31h4.2c4.4 0 7.6.4 9.6 1.2 1.6.6 2.6 1 3.2 1.6.6.4 1 .8 1.4 1.4.6.8 1.2 2 1.6 4 .6 2 .8 4.6.8 7.8v41.6zm-31-109.8v14.8s22.4 2.2 31.4 23.8v-64.2c-11.4 0-31.4 4-31.4 25.6z" id="prefix__text42" style="line-height:.8;-inkscape-font-specification:Carda" aria-label="t" fill="url(#prefix__linearGradient179)"/><path d="M267.28 586.76c-8.4 0-15.4-7-15.4-15.4 0-1.4.8-2.8 1.8-3.8h57.4c-2-22.6-20.8-40.2-43.8-40.2-24.2 0-44 19.8-44 44 0 24.4 19.8 44 44 44 23 0 41.8-17.4 43.8-39.8h-29c-1.8 6.4-7.8 11.2-14.8 11.2z" id="prefix__text41" style="line-height:.8;-inkscape-font-specification:Carda" aria-label="e" fill="url(#prefix__linearGradient180)"/><path d="M360.68 615.36v-30.8c0-4 .4-8 1.2-11.2.8-2.6 1.6-4.8 2.8-6.6.8-1.4 1.6-2.4 2.6-3.6 1.6-1.4 3.4-2.6 6.2-3.6 14.8-3.6 11.6-32.8 11.6-32.8-9.6 0-18.2 1.6-25.8 5-5.8 2.6-10.6 6.2-14.6 10.4-3 3-5.4 6.4-7.4 10-3 5.2-4.8 10.8-6 16.2-1.2 5.6-1.6 11-1.6 16.2v30.8z" id="prefix__text40" style="line-height:.8;-inkscape-font-specification:Carda" aria-label="r" fill="url(#prefix__linearGradient181)"/></g><g id="prefix__g228" font-size="200" font-family="Carda" stroke-width="2.775"><path d="M4.388 74.987v62.2h31.4v-88.6s-31.4.8-31.4 26.4zm15.4-38.2c9.6 0 17.4-7.8 17.4-17.4 0-9.8-7.8-17.6-17.4-17.6-9.6 0-17.4 7.8-17.4 17.6 0 9.6 7.8 17.4 17.4 17.4z" id="prefix__text110" style="line-height:.8;-inkscape-font-specification:Carda" aria-label="i" fill="url(#prefix__pattern204)" stroke="url(#prefix__linearGradient182)"/><path d="M114.988 97.387c-1.8 6.4-7.8 11.2-14.8 11.2-8.4 0-15.2-7-15.2-15.4s6.8-15.4 15.2-15.4c7.2 0 13.2 5 14.8 11.6h29c-2-22.6-20.8-40.2-43.8-40.2-24.2 0-44 19.8-44 44 0 24.4 19.8 44 44 44 23 0 41.8-17.4 43.8-39.8z" id="prefix__text109" style="line-height:.8;-inkscape-font-specification:Carda" aria-label="C" fill="url(#prefix__pattern205)" stroke="url(#prefix__linearGradient183)"/><path d="M192.588 137.188v-109.4c0-25.6-31.4-26.4-31.4-26.4v135.8z" id="prefix__text108" style="line-height:.8;-inkscape-font-specification:Carda" aria-label="L" fill="url(#prefix__pattern206)" stroke="url(#prefix__linearGradient184)"/><path d="M254.787 49.187c-24.4 0-44 19.8-44 44 0 24.4 19.6 44 44 44 24.2 0 44-19.6 44-44 0-24.2-19.8-44-44-44zm0 59.4c-8.6 0-15.4-7-15.4-15.4s6.8-15.4 15.4-15.4c8.4 0 15.2 7 15.2 15.4s-6.8 15.4-15.2 15.4z" id="prefix__text107" style="line-height:.8;-inkscape-font-specification:Carda" aria-label="O" fill="url(#prefix__pattern207)" stroke="url(#prefix__linearGradient185)"/><path d="M403.787 49.387h-28.6v43.8c0 8.6-7 15.4-15.4 15.4s-15.4-6.8-15.4-15.4v-43.8h-28.6v43.8c0 24.4 19.8 44 44 44s44-19.6 44-44z" id="prefix__text106" style="line-height:.8;-inkscape-font-specification:Carda" aria-label="U" fill="url(#prefix__pattern208)" stroke="url(#prefix__linearGradient186)"/><path d="M507.587 93.187c0-24.2-19.8-44-44-44-24.4 0-44 19.8-44 44 0 24.4 19.6 44 44 44 24.2 0 44-19.6 44-44zm0-91.8s-31.4.8-31.4 26.4v16.6c15.4 4.2 27.6 15.2 31.4 26zm-28.8 91.8c0 8.4-6.8 15.4-15.2 15.4-8.4 0-15.4-7-15.4-15.4s7-15.4 15.4-15.4 15.2 7 15.2 15.4z" id="prefix__text105" style="line-height:.8;-inkscape-font-specification:Carda" aria-label="D" fill="url(#prefix__pattern209)" stroke="url(#prefix__linearGradient187)"/><path d="M1.788 236.587c-1.4 15.6 8.4 23.8 22.2 23.8h8v-5.8c.2-4 .8-6.8 1.4-8.6.6-1.4 1.2-2.2 2-3l1.6-1.4c1-.6 2.4-1.2 4-1.6 1.8-.4 3.8-.6 5.8-.6h18.8c22.6 0 22.2-31 22.2-31h-54.6c-20.8 0-30.2 15.4-31.4 28.2zm85.8 32.6c1.4-15.6-8.4-24-22.2-24h-8v5.8c0 4.2-.6 6.8-1.4 8.6-.6 1.4-1.2 2.2-1.8 3-.6.4-1 1-1.8 1.4-1 .6-2.4 1.2-4 1.6-1.6.4-3.6.6-5.6.6h-19c-22.4 0-22.2 31-22.2 31h54.6c20.8 0 30.4-15.4 31.4-28z" id="prefix__text104" style="line-height:.8;-inkscape-font-specification:Carda" aria-label="S" fill="url(#prefix__pattern210)" stroke="url(#prefix__linearGradient188)"/><path d="M192.587 209.387h-28.6v43.8c0 8.6-7 15.4-15.4 15.4s-15.4-6.8-15.4-15.4v-43.8h-28.6v43.8c0 24.4 19.8 44 44 44s44-19.6 44-44zm-57.8 139.2h8.2c6-.2 11.8-1 17.2-3 4.2-1.6 8.4-3.6 12-6.4 5.6-4 10.2-9.4 13.4-16 3-6.2 4.6-13.4 4.8-21v-21.2s-8.2 16.4-31.8 22c0 4.2-1.6 11.4-8 13-11.2 2.2-17.4 12.4-15.8 32.6z" id="prefix__text103" style="line-height:.8;-inkscape-font-specification:Carda" aria-label="y" fill="url(#prefix__pattern211)" stroke="url(#prefix__linearGradient189)"/><path d="M294.387 253.387c0-24.4-19.8-44-44-44s-44 19.6-44 44v43.8h28.6v-43.8c0-8.6 7-15.4 15.4-15.4s15.4 6.8 15.4 15.4v43.8h28.6z" id="prefix__text102" style="line-height:.8;-inkscape-font-specification:Carda" aria-label="n" fill="url(#prefix__pattern212)" stroke="url(#prefix__linearGradient190)"/><path d="M368.988 257.387c-1.8 6.4-7.8 11.2-14.8 11.2-8.4 0-15.2-7-15.2-15.4s6.8-15.4 15.2-15.4c7.2 0 13.2 5 14.8 11.6h29c-2-22.6-20.8-40.2-43.8-40.2-24.2 0-44 19.8-44 44 0 24.4 19.8 44 44 44 23 0 41.8-17.4 43.8-39.8z" id="prefix__text101" style="line-height:.8;-inkscape-font-specification:Carda" aria-label="c" fill="url(#prefix__pattern213)" stroke="url(#prefix__linearGradient191)"/><path d="M4.388 394.988v62.2h31.4v-88.6s-31.4.8-31.4 26.4zm15.4-38.2c9.6 0 17.4-7.8 17.4-17.4 0-9.8-7.8-17.6-17.4-17.6-9.6 0-17.4 7.8-17.4 17.6 0 9.6 7.8 17.4 17.4 17.4z" id="prefix__text100" style="line-height:.8;-inkscape-font-specification:Carda" aria-label="I" fill="url(#prefix__pattern214)" stroke="url(#prefix__linearGradient192)"/><path d="M203.388 413.388c0-24.4-19.8-44-44-44-11.4 0-21.8 4.4-29.6 11.4-7.8-7-18.4-11.4-29.6-11.4-24.2 0-44 19.6-44 44v43.8h28.6v-43.8c0-8.6 7-15.4 15.4-15.4 7.6 0 14 5.6 15.2 13.2v46h28.8v-46c1-7.6 7.6-13.2 15.2-13.2 8.4 0 15.4 6.8 15.4 15.4v43.8h28.6z" id="prefix__text99" style="line-height:.8;-inkscape-font-specification:Carda" aria-label="m" fill="url(#prefix__pattern215)" stroke="url(#prefix__linearGradient193)"/><path d="M262.387 369.188c-24.4 0-44 19.8-44 44 0 24.4 19.6 44 44 44 24.2 0 44-19.6 44-44 0-24.2-19.8-44-44-44zm0 59.4c-8.6 0-15.4-7-15.4-15.4s6.8-15.4 15.4-15.4c8.4 0 15.2 7 15.2 15.4s-6.8 15.4-15.2 15.4zm44 5.8c-5 11.4-12.8 18.6-22.6 22.8h22.6z" id="prefix__text98" style="line-height:.8;-inkscape-font-specification:Carda" aria-label="a" fill="url(#prefix__pattern216)" stroke="url(#prefix__linearGradient194)"/><path d="M366.587 369.188c-24.4 0-44 19.8-44 44 0 24.4 19.6 44 44 44 24.2 0 44-19.6 44-44 0-24.2-19.8-44-44-44zm-13 139.4h8.2c6-.2 11.8-1 17.2-3 4.2-1.6 8.4-3.6 12-6.4 5.6-4 10.2-9.4 13.4-16 3-6.2 4.6-13.4 4.8-21v-23.2s-8.2 18.4-31.8 24c0 4.2-1.6 11.4-8 13-11.2 2.2-17.4 12.4-15.8 32.6zm13-80c-8.6 0-15.4-7-15.4-15.4s6.8-15.4 15.4-15.4c8.4 0 15.2 7 15.2 15.4s-6.8 15.4-15.2 15.4z" id="prefix__text97" style="line-height:.8;-inkscape-font-specification:Carda" aria-label="g" fill="url(#prefix__pattern217)" stroke="url(#prefix__linearGradient195)"/><path d="M468.587 428.588c-8.4 0-15.4-7-15.4-15.4 0-1.4.8-2.8 1.8-3.8h57.4c-2-22.6-20.8-40.2-43.8-40.2-24.2 0-44 19.8-44 44 0 24.4 19.8 44 44 44 23 0 41.8-17.4 43.8-39.8h-29c-1.8 6.4-7.8 11.2-14.8 11.2z" id="prefix__text96" style="line-height:.8;-inkscape-font-specification:Carda" aria-label="e" fill="url(#prefix__pattern218)" stroke="url(#prefix__linearGradient196)"/><path d="M60.188 577.387c-1.8 6.4-7.8 11.2-14.8 11.2-8.4 0-15.2-7-15.2-15.4s6.8-15.4 15.2-15.4c7.2 0 13.2 5 14.8 11.6h29c-2-22.6-20.8-40.2-43.8-40.2-24.2 0-44 19.8-44 44 0 24.4 19.8 44 44 44 23 0 41.8-17.4 43.8-39.8z" id="prefix__text95" style="line-height:.8;-inkscape-font-specification:Carda" aria-label="C" fill="url(#prefix__pattern219)" stroke="url(#prefix__linearGradient197)"/><path d="M149.187 529.187c-24.4 0-44 19.8-44 44 0 24.4 19.6 44 44 44 24.2 0 44-19.6 44-44 0-24.2-19.8-44-44-44zm0 59.4c-8.6 0-15.4-7-15.4-15.4s6.8-15.4 15.4-15.4c8.4 0 15.2 7 15.2 15.4s-6.8 15.4-15.2 15.4z" id="prefix__text94" style="line-height:.8;-inkscape-font-specification:Carda" aria-label="o" fill="url(#prefix__pattern220)" stroke="url(#prefix__linearGradient198)"/><path d="M297.187 573.387c0-24.4-19.8-44-44-44s-44 19.6-44 44v43.8h28.6v-43.8c0-8.6 7-15.4 15.4-15.4s15.4 6.8 15.4 15.4v43.8h28.6z" id="prefix__text93" style="line-height:.8;-inkscape-font-specification:Carda" aria-label="n" fill="url(#prefix__pattern221)" stroke="url(#prefix__linearGradient199)"/><path d="M344.188 528.387h-33.4l40.4 88.6h21.2l6.6-14.6zm39.6 63.4l28.8-63.4h-33.2l-12.2 27.2z" id="prefix__text92" style="line-height:.8;-inkscape-font-specification:Carda" aria-label="v" fill="url(#prefix__pattern222)" stroke="url(#prefix__linearGradient200)"/><path d="M468.788 588.587c-8.4 0-15.4-7-15.4-15.4 0-1.4.8-2.8 1.8-3.8h57.4c-2-22.6-20.8-40.2-43.8-40.2-24.2 0-44 19.8-44 44 0 24.4 19.8 44 44 44 23 0 41.8-17.4 43.8-39.8h-29c-1.8 6.4-7.8 11.2-14.8 11.2z" id="prefix__text91" style="line-height:.8;-inkscape-font-specification:Carda" aria-label="e" fill="url(#prefix__pattern223)" stroke="url(#prefix__linearGradient201)"/><path d="M562.188 617.187v-30.8c0-4 .4-8 1.2-11.2.8-2.6 1.6-4.8 2.8-6.6.8-1.4 1.6-2.4 2.6-3.6 1.6-1.4 3.4-2.6 6.2-3.6 14.8-3.6 11.6-32.8 11.6-32.8-9.6 0-18.2 1.6-25.8 5-5.8 2.6-10.6 6.2-14.6 10.4-3 3-5.4 6.4-7.4 10-3 5.2-4.8 10.8-6 16.2-1.2 5.6-1.6 11-1.6 16.2v30.8z" id="prefix__text90" style="line-height:.8;-inkscape-font-specification:Carda" aria-label="r" fill="url(#prefix__pattern224)" stroke="url(#prefix__linearGradient202)"/><path d="M648.988 617.187v-41.6c0-6.2-.6-12.4-2.6-18.2-1.4-4.4-3.4-8.6-6.2-12.4-2.2-2.8-4.8-5.4-7.6-7.6-4.4-3.2-9.4-5.4-14.6-6.8-5.2-1.4-10.8-2-20.8-2v31h4.2c4.4 0 7.6.4 9.6 1.2 1.6.6 2.6 1 3.2 1.6.6.4 1 .8 1.4 1.4.6.8 1.2 2 1.6 4 .6 2 .8 4.6.8 7.8v41.6zm-31-109.8v14.8s22.4 2.2 31.4 23.8v-64.2c-11.4 0-31.4 4-31.4 25.6z" id="prefix__text89" style="line-height:.8;-inkscape-font-specification:Carda" aria-label="t" fill="url(#prefix__pattern225)" stroke="url(#prefix__linearGradient203)"/><path d="M710.988 588.587c-8.4 0-15.4-7-15.4-15.4 0-1.4.8-2.8 1.8-3.8h57.4c-2-22.6-20.8-40.2-43.8-40.2-24.2 0-44 19.8-44 44 0 24.4 19.8 44 44 44 23 0 41.8-17.4 43.8-39.8h-29c-1.8 6.4-7.8 11.2-14.8 11.2z" id="prefix__text88" style="line-height:.8;-inkscape-font-specification:Carda" aria-label="e" fill="url(#prefix__pattern226)" stroke="url(#prefix__linearGradient204)"/><path d="M804.388 617.187v-30.8c0-4 .4-8 1.2-11.2.8-2.6 1.6-4.8 2.8-6.6.8-1.4 1.6-2.4 2.6-3.6 1.6-1.4 3.4-2.6 6.2-3.6 14.8-3.6 11.6-32.8 11.6-32.8-9.6 0-18.2 1.6-25.8 5-5.8 2.6-10.6 6.2-14.6 10.4-3 3-5.4 6.4-7.4 10-3 5.2-4.8 10.8-6 16.2-1.2 5.6-1.6 11-1.6 16.2v30.8z" id="prefix__text87" style="line-height:.8;-inkscape-font-specification:Carda" aria-label="r" fill="url(#prefix__pattern227)" stroke="url(#prefix__linearGradient11)"/></g><g id="prefix__prefix__axes_1" transform="translate(394.832 -35.892)" fill="orange" stroke="#ff0" stroke-width="2"><path d="M295.2 335.232c11.839 0 23.194-4.673 31.565-12.99a44.21 44.21 0 0013.075-31.362 44.21 44.21 0 00-13.075-31.362c-8.371-8.317-19.726-12.99-31.565-12.99-11.839 0-23.194 4.673-31.565 12.99a44.21 44.21 0 00-13.075 31.362 44.21 44.21 0 0013.075 31.362c8.371 8.317 19.726 12.99 31.565 12.99z" clip-path="url(#prefix__prefix__pb6df248465)" id="prefix__prefix__patch_2"/><path d="M496.08 290.88a198.316 198.316 0 00-6.845-51.656L295.2 290.88z" clip-path="url(#prefix__prefix__pb6df248465)" id="prefix__prefix__patch_3"/><path d="M469.167 191.088a199.495 199.495 0 00-14.598-21.707 199.984 199.984 0 00-17.325-19.628L295.2 290.88z" clip-path="url(#prefix__prefix__pb6df248465)" id="prefix__prefix__patch_4"/><path d="M395.64 118.035a201.42 201.42 0 00-23.567-11.547 201.78 201.78 0 00-24.881-8.391L295.2 290.88z" clip-path="url(#prefix__prefix__pb6df248465)" id="prefix__prefix__patch_5"/><path d="M295.2 91.296a202.165 202.165 0 00-51.992 6.8L295.2 290.88z" clip-path="url(#prefix__prefix__pb6df248465)" id="prefix__prefix__patch_6"/><path d="M194.76 118.035a200.98 200.98 0 00-21.848 14.504 200.49 200.49 0 00-19.756 17.214L295.2 290.88z" clip-path="url(#prefix__prefix__pb6df248465)" id="prefix__prefix__patch_7"/><path d="M121.233 191.088a199.057 199.057 0 00-11.622 23.415 198.7 198.7 0 00-8.446 24.72L295.2 290.88z" clip-path="url(#prefix__prefix__pb6df248465)" id="prefix__prefix__patch_8"/><path d="M94.32 290.88a198.316 198.316 0 006.845 51.656L295.2 290.88z" clip-path="url(#prefix__prefix__pb6df248465)" id="prefix__prefix__patch_9"/><path d="M121.233 390.672a199.495 199.495 0 0014.598 21.707 199.984 199.984 0 0017.325 19.628L295.2 290.88z" clip-path="url(#prefix__prefix__pb6df248465)" id="prefix__prefix__patch_10"/><path d="M194.76 463.725a201.42 201.42 0 0023.567 11.547 201.78 201.78 0 0024.881 8.391L295.2 290.88z" clip-path="url(#prefix__prefix__pb6df248465)" id="prefix__prefix__patch_11"/><path d="M295.2 490.464a202.165 202.165 0 0051.992-6.8L295.2 290.88z" clip-path="url(#prefix__prefix__pb6df248465)" id="prefix__prefix__patch_12"/><path d="M395.64 463.725a200.98 200.98 0 0021.848-14.504 200.49 200.49 0 0019.756-17.214L295.2 290.88z" clip-path="url(#prefix__prefix__pb6df248465)" id="prefix__prefix__patch_13"/><path d="M469.167 390.672a199.057 199.057 0 0011.622-23.415 198.7 198.7 0 008.446-24.72L295.2 290.88z" clip-path="url(#prefix__prefix__pb6df248465)" id="prefix__prefix__patch_14"/></g></g></svg>