<svg xmlns="http://www.w3.org/2000/svg" xmlns:xlink="http://www.w3.org/1999/xlink" width="4972" height="1536" viewBox="0 0 1315.5 406.4" xmlns:v="https://vecta.io/nano"><style><![CDATA[.B{stroke-width:2.646}.C{fill:url(#H)}.D{fill:url(#A)}.E{stroke:#dcc49c}.F{fill:url(#F)}.G{fill:url(#B)}.H{stroke:url(#I)}]]></style><defs><pattern id="A" xlink:href="#G" patternTransform="matrix(1.4142 1.4142 -1.4142 1.4142 0 0)" preserveAspectRatio="xMidYMid"/><pattern id="B" xlink:href="#E" patternTransform="matrix(1.4142 1.4142 -1.4142 1.4142 0 0)" preserveAspectRatio="xMidYMid"/><linearGradient id="C" xlink:href="#P"><stop stop-color="#ffb346" offset="0"/><stop stop-color="#ffe281" offset="1"/></linearGradient><linearGradient id="D" xlink:href="#P"><stop stop-color="#ff5b13" offset="0"/><stop stop-color="#f7c133" offset=".669"/></linearGradient><pattern id="E" width="2" height="10" fill="#ed8722" patternTransform="translate(0) scale(2)" patternUnits="userSpaceOnUse" preserveAspectRatio="xMidYMid"><path d="M0-.5h1v11H0z"/></pattern><linearGradient id="F" x1="356.46" x2="356.46" y1="338.96" y2="73.849" xlink:href="#D"/><pattern id="G" width="2" height="10" fill="#9b9b9b" patternTransform="translate(0) scale(2)" patternUnits="userSpaceOnUse" preserveAspectRatio="xMidYMid"><path d="M0-.5h1v11H0z"/></pattern><linearGradient id="H" x1="356.46" x2="356.46" y1="338.96" y2="73.849" xlink:href="#P"><stop stop-color="#898989" offset="0"/><stop stop-color="#bfbfbf" offset=".669"/></linearGradient><linearGradient id="I" x1="99.784" x2="99.784" y1="333.47" y2="135.72" xlink:href="#C"/><linearGradient id="J" x1="355.068" x2="355.068" y1="337.716" y2="72.525" xlink:href="#D"/><pattern id="K" xlink:href="#L" patternTransform="matrix(1.4142 1.4142 -1.4142 1.4142 0 0)" preserveAspectRatio="xMidYMid"/><pattern id="L" width="2" height="10" fill="#ed8722" patternTransform="translate(0) scale(2)" patternUnits="userSpaceOnUse" preserveAspectRatio="xMidYMid"><path d="M0-.5h1v11H0z"/></pattern><linearGradient id="M" x1="13.229" x2="193.23" y1="147.14" y2="147.14" xlink:href="#C"/><radialGradient id="N" cx="624.06" cy="203.35" r="62.113" gradientTransform="matrix(-3.5251e-6 -1.003 1.0016 -4.238e-7 419.13 830.24)" xlink:href="#P"><stop stop-color="#fff" offset="0"/><stop stop-color="#fff" stop-opacity=".804" offset=".519"/><stop stop-color="#fff" stop-opacity=".525" offset=".712"/><stop stop-color="#fff" stop-opacity="0" offset="1"/></radialGradient><radialGradient id="O" cx="2195.5" cy="570.76" r="210.4" gradientTransform="matrix(-3.7477e-6 -1.0014 1 -4.0973e-6 1624.8 2769.3)" xlink:href="#P"><stop stop-color="#fff" offset="0"/><stop stop-color="#fff" stop-opacity=".294" offset=".341"/><stop stop-color="#fff" stop-opacity=".188" offset=".818"/><stop stop-color="#fff" stop-opacity=".02" offset=".969"/><stop stop-color="#fff" stop-opacity="0" offset="1"/></radialGradient><linearGradient id="P" gradientUnits="userSpaceOnUse"/></defs><g transform="translate(630.47 19.365)" class="C"><path d="M611.1 181.04c-7.548.093-7.594 9.183-10.372 14.572-4.526 7.661-13.831 10.995-22.405 9.926-8.411-.395-18.813-2.759-25.041 4.636l-33.468 33.754c-6.206 6.404 3.946 9.393 9.114 7.948l82.51.157c13.193.255 27.083-5.537 33.648-17.496 10.348-17.457 2.52-43.102-16.608-50.704-4.963-2.003-10.399-3.138-15.764-2.688-.573-.078-1.11-.111-1.613-.105z"/><path d="M602.12 117.41c-5.057-.237-10.414.923-15.379.454-12.155-.152-24.345-.931-36.476.219-15.493.952-29.818 12.993-31.92 28.634-3.217 17.673 8.314 37.27 26.327 40.991 5.473 1.17 11.682 1.795 16.814-.819 4.069-5.065 3.105-13.142 9.086-17.229 7.589-7.424 18.727-5.19 28.337-5.454l44.134-.049c10.032-.276 3.106-10.377-1.565-13.355L610.751 120c-2.67-1.802-5.597-2.447-8.631-2.589z"/></g><g class="B D E"><path d="M1241.6 200.41c-7.548.093-7.594 9.183-10.372 14.572-4.526 7.661-13.831 10.995-22.405 9.926-8.411-.395-18.813-2.759-25.041 4.636l-33.468 33.754c-6.206 6.404 3.946 9.393 9.114 7.948l82.51.157c13.193.255 27.083-5.538 33.648-17.496 10.348-17.457 2.52-43.102-16.608-50.704-4.963-2.003-10.399-3.138-15.764-2.688-.573-.078-1.11-.111-1.613-.105z"/><path d="M1232.6 136.77c-5.057-.237-10.414.923-15.379.454-12.155-.152-24.345-.931-36.476.219-15.493.952-29.818 12.993-31.92 28.634-3.217 17.673 8.314 37.27 26.327 40.991 5.473 1.17 11.682 1.795 16.814-.819 4.069-5.065 3.105-13.142 9.086-17.229 7.589-7.424 18.727-5.19 28.337-5.454l44.134-.049c10.032-.276 3.106-10.377-1.565-13.355l-30.728-30.802c-2.67-1.802-5.597-2.447-8.631-2.589z"/></g><path transform="translate(630.47 19.365)" d="M433.78 117.43c-37.262 0-67.469 30.207-67.469 67.469l.004.06h-.004v124.98c0 1.6 1.303 2.898 2.911 2.898a6.58 6.58 0 0 0 4.668-1.94l35.739-35.983a5.71 5.71 0 0 0 1.661-4.024v-22.554a67.47 67.47 0 0 0 22.49 4.031c37.262 0 67.469-30.207 67.469-67.469s-30.207-67.469-67.469-67.469zm0 44.979a22.49 22.49 0 0 1 22.49 22.49 22.49 22.49 0 0 1-22.49 22.49 22.49 22.49 0 0 1-22.49-22.49 22.49 22.49 0 0 1 22.49-22.49z" class="C"/><path d="M1064.2 136.79a67.469 67.469 0 0 0-67.469 67.469 67.469 67.469 0 0 0 .004.06h-.004v124.98a2.912 2.898 0 0 0 2.911 2.898 6.563 6.531 0 0 0 4.668-1.94l35.739-35.983a5.751 5.723 0 0 0 1.661-4.024v-22.554a67.469 67.469 0 0 0 89.959-63.438 67.469 67.469 0 0 0-67.469-67.469zm0 44.979a22.49 22.49 0 1 1 0 44.98 22.49 22.49 0 1 1 0-44.98z" class="B D E"/><path transform="translate(630.47 19.365)" d="M283.61 117.43c-37.262 0-67.469 30.207-67.469 67.469l.004.06h-.004v124.98c0 1.6 1.303 2.898 2.911 2.898a6.58 6.58 0 0 0 4.668-1.94l35.739-35.983a5.71 5.71 0 0 0 1.661-4.024v-22.554a67.47 67.47 0 0 0 22.49 4.031c37.262 0 67.469-30.207 67.469-67.469s-30.207-67.469-67.469-67.469zm0 44.979a22.49 22.49 0 0 1 22.49 22.49 22.49 22.49 0 0 1-22.49 22.49 22.49 22.49 0 0 1-22.49-22.49 22.49 22.49 0 0 1 22.49-22.49z" class="C"/><path d="M914.07 136.79a67.469 67.469 0 0 0-67.469 67.469 67.469 67.469 0 0 0 .004.06h-.004v124.98a2.912 2.898 0 0 0 2.911 2.898 6.563 6.531 0 0 0 4.668-1.94l35.739-35.983a5.751 5.723 0 0 0 1.661-4.024v-22.554a67.469 67.469 0 0 0 89.959-63.438 67.469 67.469 0 0 0-67.469-67.469zm0 44.979a22.49 22.49 0 1 1 0 44.98 22.49 22.49 0 1 1 0-44.98z" class="B D E"/><path transform="translate(630.47 19.365)" d="m133.43 117.43a67.469 67.469 0 0 0-67.469 67.469 67.469 67.469 0 0 0 67.469 67.469 67.469 67.469 0 0 0 22.49-4.0318v1.2511a2.6485 2.7808 0 0 0 2.6484 2.7807h39.682a2.6485 2.7808 0 0 0 2.6489-2.7807v-64.688-0.46147h-0.01137a67.469 67.469 0 0 0-67.457-67.007zm0 44.979a22.49 22.49 0 0 1 22.49 22.49 22.49 22.49 0 0 1-22.49 22.49 22.49 22.49 0 0 1-22.49-22.49 22.49 22.49 0 0 1 22.49-22.49z" class="C"/><path d="M763.9 136.79a67.469 67.469 0 0 0 0 134.938 67.469 67.469 0 0 0 22.49-4.032v1.251a2.649 2.781 0 0 0 2.648 2.781h39.682a2.649 2.781 0 0 0 2.649-2.781v-65.15h-.011a67.469 67.469 0 0 0-67.457-67.007zm0 44.979a22.49 22.49 0 1 1 0 44.98 22.49 22.49 0 1 1 0-44.98z" class="B D E"/><g transform="translate(1.798 1.296)"><path d="M537.31 112.72c-3.005-.035-5.953 1.396-6.278 4.882-.097 8.96 1.578 17.929 4.146 26.502 8.322 25.767 28.2 47.204 52.462 58.866-24.262 11.661-44.14 33.098-52.462 58.865-2.568 8.573-4.243 17.542-4.146 26.502.372 3.984 4.169 5.284 7.562 4.779l55.602-.092c4.509.273 7.052-4.005 6.914-8.063.034-6.533.328-13.063 1.341-19.531 1.545-10.296 3.794-20.928 9.705-29.683 1.691-3.585 6.288-6.064 8.873-6.064s7.182 2.479 8.873 6.064c5.911 8.756 8.159 19.387 9.704 29.683 1.013 6.468 1.307 12.998 1.341 19.531-.138 4.058 2.406 8.335 6.915 8.063l55.601.092c3.392.505 7.19-.794 7.562-4.779.097-8.96-1.577-17.929-4.145-26.502-8.322-25.767-28.2-47.204-52.462-58.865 24.262-11.661 44.14-33.099 52.462-58.866 2.568-8.573 4.243-17.542 4.145-26.502-.325-3.486-3.274-4.917-6.278-4.882a9.48 9.48 0 0 0-1.284.103c-18.533.054-37.072-.091-55.601.093-4.509-.273-7.053 4.004-6.915 8.062-.034 6.533-.328 13.063-1.341 19.531-1.545 10.296-3.794 20.929-9.704 29.684-1.691 3.585-6.288 6.064-8.873 6.064s-7.182-2.479-8.873-6.064c-5.911-8.755-8.16-19.388-9.705-29.684-1.013-6.468-1.307-12.998-1.341-19.531.138-4.058-2.405-8.335-6.914-8.062l-55.602-.093a9.48 9.48 0 0 0-1.284-.103z" fill="url(#J)"/><path transform="translate(517.8 55.831)" d="m19.511 56.886c-3.0046-0.03522-5.9528 1.3958-6.2782 4.8819-0.0971 8.9604 1.5779 17.929 4.146 26.502 8.3217 25.767 28.2 47.204 52.462 58.866-24.262 11.661-44.14 33.098-52.462 58.865-2.5681 8.573-4.2431 17.542-4.146 26.502 0.3719 3.9841 4.1694 5.2837 7.5618 4.7785 18.533-0.0539 37.072 0.0909 55.602-0.0925 4.5092 0.27282 7.052-4.0047 6.9143-8.0626 0.03349-6.5328 0.32803-13.063 1.3405-19.531 1.5452-10.296 3.7942-20.928 9.7048-29.683 1.6905-3.5849 6.2877-6.0642 8.8728-6.0642 2.5852 0 7.1823 2.4793 8.8728 6.0642 5.9107 8.7555 8.1591 19.387 9.7043 29.683 1.0125 6.4678 1.307 12.998 1.3405 19.531-0.13771 4.0578 2.4056 8.3354 6.9148 8.0626 18.53 0.1834 37.068 0.0386 55.601 0.0925 3.3924 0.50516 7.1899-0.79439 7.5618-4.7785 0.0971-8.9604-1.5774-17.929-4.1455-26.502-8.3217-25.767-28.2-47.204-52.462-58.865 24.262-11.661 44.14-33.099 52.462-58.866 2.5681-8.573 4.2426-17.542 4.1455-26.502-0.32542-3.4861-3.2736-4.9171-6.2782-4.8819-0.42921 5e-3 -0.85959 0.0402-1.2836 0.10335-18.533 0.05391-37.072-0.09095-55.601 0.0925-4.5092-0.27282-7.0525 4.0042-6.9148 8.062-0.0335 6.5328-0.32803 13.063-1.3405 19.531-1.5452 10.296-3.7936 20.929-9.7043 29.684-1.6905 3.5849-6.2877 6.0642-8.8728 6.0642-2.5852 0-7.1823-2.4793-8.8728-6.0642-5.9107-8.7555-8.1596-19.388-9.7048-29.684-1.0125-6.4678-1.307-12.998-1.3405-19.531 0.13771-4.0578-2.4051-8.3349-6.9143-8.062-18.53-0.18345-37.069-0.03859-55.602-0.0925-0.42405-0.06315-0.85443-0.09833-1.2836-0.10335z" fill="url(#K)" stroke="url(#M)" stroke-width="2.159"/><g transform="translate(-1.798 -1.296)"><circle cx="622.83" cy="204.26" r="62.113" fill="url(#N)"/><path transform="matrix(.29571 0 0 .29571 -26.413 35.523)" d="m2195.6 360.24-21.574 118.75a96.898 94.256 0 0 1 21.574-2.6074 96.898 94.256 0 0 1 21.533 2.3872zm-148.77 61.622 67.508 97.486a96.898 94.256 0 0 1 31.108-29.191zm297.54 0-98.498 68.211a96.898 94.256 0 0 1 30.991 29.27zm-148.77 64.457a86.681 84.317 0 0 0-86.681 84.316 86.681 84.317 0 0 0 86.681 84.316 86.681 84.317 0 0 0 86.681-84.316 86.681 84.317 0 0 0-86.681-84.316zm-94.19 63.204-116.21 21.112 116.21 21.112a96.898 94.256 0 0 1-2.7087-21.112 96.898 94.256 0 0 1 2.7087-21.112zm188.61 0.0419a96.898 94.256 0 0 1 2.4815 21.07 96.898 94.256 0 0 1-2.7087 21.112l116.21-21.112zm-175.68 72.358-67.508 97.486 98.617-68.295a96.898 94.256 0 0 1-31.108-29.191zm162.53 0a96.898 94.256 0 0 1-31.108 29.191l98.618 68.295zm-102.84 40.362 21.574 118.75 21.574-118.75a96.898 94.256 0 0 1-21.574 2.6074 96.898 94.256 0 0 1-21.574-2.6074z" fill="url(#O)"/></g></g><path d="M435.9 136.45c-2.389.005-5.075.546-7.183.214h-29.754c-4.755 2.086-1.992 8.459-2.648 12.709v55.226c-.398 29.785 21.6 57.982 50.518 65.034 25.983 6.912 55.573-3.377 71.24-25.329 8.401-11.414 13.164-25.515 13.148-39.705v-65.155c-1.831-4.942-8.363-2.118-12.578-2.781H488.89c-4.755 2.086-1.992 8.459-2.648 12.709v55.226c.443 14.969-16.889 26.719-30.634 20.646-8.285-3.22-14.357-11.699-14.313-20.647v-65.154c-.916-2.471-3.006-3.001-5.395-2.995z" class="F"/><path d="m435.9 136.45c-2.3887 5e-3 -5.0755 0.54555-7.1825 0.21394h-29.754c-4.755 2.0859-1.9918 8.4594-2.6479 12.709v55.226c-0.39777 29.785 21.6 57.982 50.518 65.034 25.983 6.912 55.573-3.3767 71.24-25.329 8.4011-11.414 13.164-25.515 13.148-39.705v-65.155c-1.8311-4.9418-8.3634-2.1175-12.578-2.7807h-29.754c-4.755 2.0859-1.9918 8.4594-2.6479 12.709 2e-5 18.409-2e-5 36.817 0 55.226 0.4428 14.969-16.889 26.719-30.634 20.646-8.2849-3.2197-14.357-11.699-14.313-20.647-1e-5 -21.718 1e-5 -43.436 0-65.154-0.91557-2.4709-3.0063-3.0006-5.395-2.9952z" class="B G H"/><path d="M339.02 74.996a2.912 2.923 0 0 0-2.912 2.923v188.64a2.649 2.659 0 0 0 2.649 2.659h39.682a2.649 2.659 0 0 0 2.648-2.659v-149.25a5.751 5.773 0 0 0-1.66-4.059l-35.739-36.299a6.563 6.588 0 0 0-4.668-1.957z" class="F"/><path d="m339.02 74.996a2.9119 2.9233 0 0 0-2.912 2.9233v188.64a2.6485 2.6589 0 0 0 2.6489 2.6588h39.682a2.6485 2.6589 0 0 0 2.6484-2.6588v-149.25a5.7507 5.7733 0 0 0-1.6604-4.0587l-35.739-36.299a6.5626 6.5883 0 0 0-4.6679-1.957z" class="B G H"/><path d="M188.89 74.996c-1.608 0-2.911 1.309-2.911 2.923v188.64c0 1.468 1.186 2.659 2.648 2.659h39.682c1.463 0 2.648-1.19 2.648-2.659v-62.631h.014c.184-12.274 10.176-22.133 22.452-22.153 12.275.019 22.297 9.888 22.481 22.162v62.608c0 1.476 1.186 2.672 2.648 2.672h39.682c1.463 0 2.649-1.196 2.649-2.672v-62.617c-.185-37.127-30.333-67.127-67.46-67.131-7.474.543-14.973.341-22.466.341v-19.825c0-1.52-.597-2.978-1.661-4.059l-35.739-36.3a6.55 6.55 0 0 0-4.668-1.957z" class="F"/><path d="m188.89 74.996c-1.608 2.34e-4 -2.9115 1.309-2.9114 2.9233v188.64c9e-5 1.4684 1.1858 2.6587 2.6484 2.6588h39.682c1.4626-5e-5 2.6483-1.1904 2.6484-2.6588v-62.631h0.0139c0.1839-12.274 10.176-22.133 22.452-22.153 12.275 0.0195 22.297 9.888 22.481 22.162v62.608c7e-5 1.4758 1.1858 2.6721 2.6484 2.6722h39.682c1.4628 2.3e-4 2.6489-1.1962 2.6489-2.6722v-62.617c-0.18541-37.127-30.333-67.127-67.46-67.131-7.4744 0.54299-14.973 0.34054-22.466 0.34054v-19.825c0-1.5196-0.59679-2.9779-1.6609-4.0587l-35.739-36.3c-1.233-1.2524-2.914-1.9566-4.6679-1.9565z" class="B G H"/><path d="M103.28 136.79a67.469 67.469 0 0 0-67.469 67.469 67.469 67.469 0 0 0 .004.06h-.004v124.98a2.912 2.898 0 0 0 2.911 2.898 6.563 6.531 0 0 0 4.668-1.94l35.739-35.983a5.751 5.723 0 0 0 1.661-4.024v-22.554a67.469 67.469 0 0 0 22.49 4.031 67.469 67.469 0 1 0 0-134.938zm0 44.979a22.49 22.49 0 1 1 0 44.98 22.49 22.49 0 1 1 0-44.98z" class="F"/><path d="m103.28 136.79a67.469 67.469 0 0 0-67.469 67.469 67.469 67.469 0 0 0 0.004134 0.06046h-0.004134v124.98a2.9119 2.8979 0 0 0 2.9114 2.898 6.5626 6.531 0 0 0 4.6679-1.9399l35.739-35.983a5.7507 5.7231 0 0 0 1.6609-4.0235v-22.554a67.469 67.469 0 0 0 22.49 4.0313 67.469 67.469 0 0 0 67.469-67.469 67.469 67.469 0 0 0-67.469-67.469zm0 44.979a22.49 22.49 0 0 1 22.49 22.49 22.49 22.49 0 0 1-22.49 22.49 22.49 22.49 0 0 1-22.49-22.49 22.49 22.49 0 0 1 22.49-22.49z" class="B G H"/></svg>