<svg width="768" height="768" viewBox="0 0 576 576" xmlns="http://www.w3.org/2000/svg">
    <defs>
        <style>
            * {
                stroke-linejoin: round;
                stroke-linecap: butt
            }
        </style>
    </defs>
    <g id="prefix__figure_1">
        <g id="prefix__axes_1">
            <path
                d="M295.2 335.232c11.839 0 23.194-4.673 31.565-12.99a44.21 44.21 0 0013.075-31.362 44.21 44.21 0 00-13.075-31.362c-8.371-8.317-19.726-12.99-31.565-12.99-11.839 0-23.194 4.673-31.565 12.99a44.21 44.21 0 00-13.075 31.362 44.21 44.21 0 0013.075 31.362c8.371 8.317 19.726 12.99 31.565 12.99z"
                clip-path="url(#prefix__pb6df248465)" fill="orange" stroke="#ff0" stroke-width="2"
                id="prefix__patch_2" />
            <path d="M496.08 290.88a198.316 198.316 0 00-6.845-51.656L295.2 290.88h200.88z"
                clip-path="url(#prefix__pb6df248465)" fill="orange" stroke="#ff0" stroke-width="2"
                id="prefix__patch_3" />
            <path
                d="M469.167 191.088a199.495 199.495 0 00-14.598-21.707 199.984 199.984 0 00-17.325-19.628L295.2 290.88l173.967-99.792z"
                clip-path="url(#prefix__pb6df248465)" fill="orange" stroke="#ff0" stroke-width="2"
                id="prefix__patch_4" />
            <path
                d="M395.64 118.035a201.42 201.42 0 00-23.567-11.547 201.78 201.78 0 00-24.881-8.391L295.2 290.88l100.44-172.845z"
                clip-path="url(#prefix__pb6df248465)" fill="orange" stroke="#ff0" stroke-width="2"
                id="prefix__patch_5" />
            <path d="M295.2 91.296a202.165 202.165 0 00-51.992 6.8L295.2 290.88V91.296z"
                clip-path="url(#prefix__pb6df248465)" fill="orange" stroke="#ff0" stroke-width="2"
                id="prefix__patch_6" />
            <path
                d="M194.76 118.035a200.98 200.98 0 00-21.848 14.504 200.49 200.49 0 00-19.756 17.214L295.2 290.88 194.76 118.035z"
                clip-path="url(#prefix__pb6df248465)" fill="orange" stroke="#ff0" stroke-width="2"
                id="prefix__patch_7" />
            <path
                d="M121.233 191.088a199.057 199.057 0 00-11.622 23.415 198.7 198.7 0 00-8.446 24.72L295.2 290.88l-173.967-99.792z"
                clip-path="url(#prefix__pb6df248465)" fill="orange" stroke="#ff0" stroke-width="2"
                id="prefix__patch_8" />
            <path d="M94.32 290.88a198.316 198.316 0 006.845 51.656L295.2 290.88H94.32z"
                clip-path="url(#prefix__pb6df248465)" fill="orange" stroke="#ff0" stroke-width="2"
                id="prefix__patch_9" />
            <path
                d="M121.233 390.672a199.495 199.495 0 0014.598 21.707 199.984 199.984 0 0017.325 19.628L295.2 290.88l-173.967 99.792z"
                clip-path="url(#prefix__pb6df248465)" fill="orange" stroke="#ff0" stroke-width="2"
                id="prefix__patch_10" />
            <path
                d="M194.76 463.725a201.42 201.42 0 0023.567 11.547 201.78 201.78 0 0024.881 8.391L295.2 290.88 194.76 463.725z"
                clip-path="url(#prefix__pb6df248465)" fill="orange" stroke="#ff0" stroke-width="2"
                id="prefix__patch_11" />
            <path d="M295.2 490.464a202.165 202.165 0 0051.992-6.8L295.2 290.88v199.584z"
                clip-path="url(#prefix__pb6df248465)" fill="orange" stroke="#ff0" stroke-width="2"
                id="prefix__patch_12" />
            <path
                d="M395.64 463.725a200.98 200.98 0 0021.848-14.504 200.49 200.49 0 0019.756-17.214L295.2 290.88l100.44 172.845z"
                clip-path="url(#prefix__pb6df248465)" fill="orange" stroke="#ff0" stroke-width="2"
                id="prefix__patch_13" />
            <path
                d="M469.167 390.672a199.057 199.057 0 0011.622-23.415 198.7 198.7 0 008.446-24.72L295.2 290.88l173.967 99.792z"
                clip-path="url(#prefix__pb6df248465)" fill="orange" stroke="#ff0" stroke-width="2"
                id="prefix__patch_14" />
            <path
                d="M563.04 313.056c5.92 0 11.597-2.337 15.783-6.495a22.105 22.105 0 006.537-15.681 22.105 22.105 0 00-6.537-15.68 22.395 22.395 0 00-15.783-6.496 22.395 22.395 0 00-15.783 6.495 22.105 22.105 0 00-6.537 15.681 22.105 22.105 0 006.537 15.68 22.395 22.395 0 0015.783 6.496z"
                clip-path="url(#prefix__pb6df248465)" fill="red" stroke="red" stroke-width="2" id="prefix__patch_15" />
            <path
                d="M295.2 46.944c5.92 0 11.597-2.337 15.783-6.495a22.105 22.105 0 006.537-15.681 22.105 22.105 0 00-6.537-15.68A22.395 22.395 0 00295.2 2.591a22.395 22.395 0 00-15.783 6.495 22.105 22.105 0 00-6.537 15.681 22.105 22.105 0 006.537 15.68 22.395 22.395 0 0015.783 6.496z"
                clip-path="url(#prefix__pb6df248465)" fill="red" stroke="red" stroke-width="2" id="prefix__patch_16" />
            <path
                d="M27.36 313.056c5.92 0 11.597-2.337 15.783-6.495a22.105 22.105 0 006.537-15.681 22.105 22.105 0 00-6.537-15.68 22.395 22.395 0 00-15.783-6.496 22.395 22.395 0 00-15.783 6.495A22.105 22.105 0 005.04 290.88a22.105 22.105 0 006.537 15.68 22.395 22.395 0 0015.783 6.496z"
                clip-path="url(#prefix__pb6df248465)" fill="red" stroke="red" stroke-width="2" id="prefix__patch_17" />
            <path
                d="M295.2 579.168c5.92 0 11.597-2.337 15.783-6.495a22.105 22.105 0 006.537-15.681 22.105 22.105 0 00-6.537-15.68 22.395 22.395 0 00-15.783-6.496 22.395 22.395 0 00-15.783 6.495 22.105 22.105 0 00-6.537 15.681 22.105 22.105 0 006.537 15.68 22.395 22.395 0 0015.783 6.496z"
                clip-path="url(#prefix__pb6df248465)" fill="red" stroke="red" stroke-width="2" id="prefix__patch_18" />
        </g>
    </g>
    <defs>
        <clipPath id="prefix__pb6df248465">
            <path d="M72 69.12h446.4v443.52H72z" />
        </clipPath>
    </defs>
</svg>